HIERARCHY
ROOT Hips
{
  OFFSET 5.80788e-005 67.184 3.4734
  CHANNELS 6 Xposition Yposition Zposition Zrotation Xrotation Yrotation
  JOINT Chest
  {
    OFFSET 0 8.7983 -4.7612
    CHANNELS 6 Xposition Yposition Zposition Zrotation Xrotation Yrotation
    JOINT Chest2
    {
      OFFSET 0 8.0291 0.4195
      CHANNELS 6 Xposition Yposition Zposition Zrotation Xrotation Yrotation
      JOINT Chest3
      {
        OFFSET 0 9.9351 -2.2114
        CHANNELS 6 Xposition Yposition Zposition Zrotation Xrotation Yrotation
        JOINT Neck
        {
          OFFSET 0 22.3885 -0.4656
          CHANNELS 6 Xposition Yposition Zposition Zrotation Xrotation Yrotation
          JOINT Head
          {
            OFFSET -0.0001 12.643 3.4389
            CHANNELS 6 Xposition Yposition Zposition Zrotation Xrotation Yrotation
            End Site
            {
              OFFSET 0.0001 17.6655 0.5274
            }
          }
        }
        JOINT LeftCollar
        {
          OFFSET 2.2603 21.606 7.4023
          CHANNELS 6 Xposition Yposition Zposition Zrotation Xrotation Yrotation
          JOINT LeftShoulder
          {
            OFFSET 13.5163 -1.1332 -5.0146
            CHANNELS 6 Xposition Yposition Zposition Zrotation Xrotation Yrotation
            JOINT LeftElbow
            {
              OFFSET -0.0995 -28.05 -0.2431
              CHANNELS 6 Xposition Yposition Zposition Zrotation Xrotation Yrotation
              JOINT LeftWrist
              {
                OFFSET 0.0679 -23.3996 -0.1402
                CHANNELS 6 Xposition Yposition Zposition Zrotation Xrotation Yrotation
                JOINT LeftFinger1
                {
                  OFFSET 0.7932 -9.069 2.5189
                  CHANNELS 6 Xposition Yposition Zposition Zrotation Xrotation Yrotation
                  JOINT LeftFinger11
                  {
                    OFFSET -0.8272 -3.3923 0.5977
                    CHANNELS 6 Xposition Yposition Zposition Zrotation Xrotation Yrotation
                    JOINT LeftFinger12
                    {
                      OFFSET -0.5649 -2.3158 0.4082
                      CHANNELS 6 Xposition Yposition Zposition Zrotation Xrotation Yrotation
                      End Site
                      {
                        OFFSET -0.4919 -1.6479 0.2673
                      }
                    }
                  }
                }
                JOINT LeftFinger2
                {
                  OFFSET 0.9159 -9.2044 0.2193
                  CHANNELS 6 Xposition Yposition Zposition Zrotation Xrotation Yrotation
                  JOINT LeftFinger21
                  {
                    OFFSET 0.0117 -4.1944 -0.0248
                    CHANNELS 6 Xposition Yposition Zposition Zrotation Xrotation Yrotation
                    JOINT LeftFinger22
                    {
                      OFFSET 0.0071 -2.3249 -0.0142
                      CHANNELS 6 Xposition Yposition Zposition Zrotation Xrotation Yrotation
                      End Site
                      {
                        OFFSET -0.1475 -2.0882 0.0028
                      }
                    }
                  }
                }
                JOINT LeftFinger3
                {
                  OFFSET 0.6113 -8.7231 -2.0637
                  CHANNELS 6 Xposition Yposition Zposition Zrotation Xrotation Yrotation
                  JOINT LeftFinger31
                  {
                    OFFSET -0.1927 -3.8059 -0.2383
                    CHANNELS 6 Xposition Yposition Zposition Zrotation Xrotation Yrotation
                    JOINT LeftFinger32
                    {
                      OFFSET -0.1091 -2.1688 -0.1362
                      CHANNELS 6 Xposition Yposition Zposition Zrotation Xrotation Yrotation
                      End Site
                      {
                        OFFSET -0.2358 -1.9176 -0.0906
                      }
                    }
                  }
                }
                JOINT LeftFinger4
                {
                  OFFSET -0.6151 -8.0947 -3.5641
                  CHANNELS 6 Xposition Yposition Zposition Zrotation Xrotation Yrotation
                  JOINT LeftFinger41
                  {
                    OFFSET -0.4882 -2.341 -0.6462
                    CHANNELS 6 Xposition Yposition Zposition Zrotation Xrotation Yrotation
                    JOINT LeftFinger42
                    {
                      OFFSET -0.3575 -1.7167 -0.4742
                      CHANNELS 6 Xposition Yposition Zposition Zrotation Xrotation Yrotation
                      End Site
                      {
                        OFFSET -0.4187 -1.5237 -0.3496
                      }
                    }
                  }
                }
                JOINT LeftFinger0
                {
                  OFFSET -1.42 -1.8761 1.4223
                  CHANNELS 6 Xposition Yposition Zposition Zrotation Xrotation Yrotation
                  JOINT LeftFinger01
                  {
                    OFFSET -1.1471 -3.4929 2.6334
                    CHANNELS 6 Xposition Yposition Zposition Zrotation Xrotation Yrotation
                    JOINT LeftFinger02
                    {
                      OFFSET -0.823 -2.3 1.6571
                      CHANNELS 6 Xposition Yposition Zposition Zrotation Xrotation Yrotation
                      End Site
                      {
                        OFFSET -0.5822 -1.6914 1.1582
                      }
                    }
                  }
                }
              }
            }
          }
        }
        JOINT RightCollar
        {
          OFFSET -2.2603 21.606 7.4023
          CHANNELS 6 Xposition Yposition Zposition Zrotation Xrotation Yrotation
          JOINT RightShoulder
          {
            OFFSET -13.5187 -1.1334 -5.0155
            CHANNELS 6 Xposition Yposition Zposition Zrotation Xrotation Yrotation
            JOINT RightElbow
            {
              OFFSET 0.0994 -28.0499 -0.2431
              CHANNELS 6 Xposition Yposition Zposition Zrotation Xrotation Yrotation
              JOINT RightWrist
              {
                OFFSET -0.0679 -23.3996 -0.1402
                CHANNELS 6 Xposition Yposition Zposition Zrotation Xrotation Yrotation
                JOINT RightFinger1
                {
                  OFFSET -0.7932 -9.0691 2.5189
                  CHANNELS 6 Xposition Yposition Zposition Zrotation Xrotation Yrotation
                  JOINT RightFinger11
                  {
                    OFFSET 0.8272 -3.3923 0.5977
                    CHANNELS 6 Xposition Yposition Zposition Zrotation Xrotation Yrotation
                    JOINT RightFinger12
                    {
                      OFFSET 0.565 -2.3158 0.4082
                      CHANNELS 6 Xposition Yposition Zposition Zrotation Xrotation Yrotation
                      End Site
                      {
                        OFFSET 0.4919 -1.6479 0.2673
                      }
                    }
                  }
                }
                JOINT RightFinger2
                {
                  OFFSET -0.916 -9.2044 0.2193
                  CHANNELS 6 Xposition Yposition Zposition Zrotation Xrotation Yrotation
                  JOINT RightFinger21
                  {
                    OFFSET -0.0117 -4.1944 -0.0248
                    CHANNELS 6 Xposition Yposition Zposition Zrotation Xrotation Yrotation
                    JOINT RightFinger22
                    {
                      OFFSET -0.0071 -2.3249 -0.0142
                      CHANNELS 6 Xposition Yposition Zposition Zrotation Xrotation Yrotation
                      End Site
                      {
                        OFFSET 0.1475 -2.0882 0.0028
                      }
                    }
                  }
                }
                JOINT RightFinger3
                {
                  OFFSET -0.6113 -8.7231 -2.0637
                  CHANNELS 6 Xposition Yposition Zposition Zrotation Xrotation Yrotation
                  JOINT RightFinger31
                  {
                    OFFSET 0.1927 -3.8059 -0.2383
                    CHANNELS 6 Xposition Yposition Zposition Zrotation Xrotation Yrotation
                    JOINT RightFinger32
                    {
                      OFFSET 0.1091 -2.1688 -0.1362
                      CHANNELS 6 Xposition Yposition Zposition Zrotation Xrotation Yrotation
                      End Site
                      {
                        OFFSET 0.2358 -1.9176 -0.0906
                      }
                    }
                  }
                }
                JOINT RightFinger4
                {
                  OFFSET 0.6151 -8.0947 -3.564
                  CHANNELS 6 Xposition Yposition Zposition Zrotation Xrotation Yrotation
                  JOINT RightFinger41
                  {
                    OFFSET 0.4882 -2.341 -0.6462
                    CHANNELS 6 Xposition Yposition Zposition Zrotation Xrotation Yrotation
                    JOINT RightFinger42
                    {
                      OFFSET 0.3574 -1.7166 -0.4742
                      CHANNELS 6 Xposition Yposition Zposition Zrotation Xrotation Yrotation
                      End Site
                      {
                        OFFSET 0.4187 -1.5237 -0.3496
                      }
                    }
                  }
                }
                JOINT RightFinger0
                {
                  OFFSET 1.4199 -1.8761 1.4221
                  CHANNELS 6 Xposition Yposition Zposition Zrotation Xrotation Yrotation
                  JOINT RightFinger01
                  {
                    OFFSET 1.1472 -3.4929 2.6336
                    CHANNELS 6 Xposition Yposition Zposition Zrotation Xrotation Yrotation
                    JOINT RightFinger02
                    {
                      OFFSET 0.8229 -2.3 1.6571
                      CHANNELS 6 Xposition Yposition Zposition Zrotation Xrotation Yrotation
                      End Site
                      {
                        OFFSET 0.5822 -1.6914 1.1582
                      }
                    }
                  }
                }
              }
            }
          }
        }
      }
    }
  }
  JOINT RightHip
  {
    OFFSET -9.412 3.9771 -0.7758
    CHANNELS 6 Xposition Yposition Zposition Zrotation Xrotation Yrotation
    JOINT RightKnee
    {
      OFFSET -0.7531 -40.938 0
      CHANNELS 6 Xposition Yposition Zposition Zrotation Xrotation Yrotation
      JOINT RightAnkle
      {
        OFFSET 0 -40.1986 0
        CHANNELS 6 Xposition Yposition Zposition Zrotation Xrotation Yrotation
        JOINT RightToe
        {
          OFFSET 0 -4.4182 9.239
          CHANNELS 6 Xposition Yposition Zposition Zrotation Xrotation Yrotation
          End Site
          {
            OFFSET 0 0 6.1981
          }
        }
      }
    }
  }
  JOINT LeftHip
  {
    OFFSET 9.4119 3.9773 -0.7758
    CHANNELS 6 Xposition Yposition Zposition Zrotation Xrotation Yrotation
    JOINT LeftKnee
    {
      OFFSET 0.7532 -40.9383 0
      CHANNELS 6 Xposition Yposition Zposition Zrotation Xrotation Yrotation
      JOINT LeftAnkle
      {
        OFFSET 0 -40.1986 0
        CHANNELS 6 Xposition Yposition Zposition Zrotation Xrotation Yrotation
        JOINT LeftToe
        {
          OFFSET 0 -4.4182 9.239
          CHANNELS 6 Xposition Yposition Zposition Zrotation Xrotation Yrotation
          End Site
          {
            OFFSET 0 0 6.1981
          }
        }
      }
    }
  }
}
MOTION
Frames:	4
Frame Time:	0.0333333
5.80788e-005 67.184 3.4734 0 0 -0 0 8.7983 -4.7612 0 0 -0 0 8.0291 0.4195 0 0 -0 0 9.9351 -2.2114 0 0 -0 0 22.3885 -0.4656 0 0 -0 -0.0001 12.643 3.4389 0 0 -0 2.2603 21.606 7.4023 0 0 -12.5014 13.5163 -1.1332 -5.0146 88.1196 14.2451 10.6914 -0.0995 -28.05 -0.2431 -0.00160068 -0.00239207 0.000740045 0.0679 -23.3996 -0.1402 -8.4365e-005 7.00714e-005 -9.52055e-007 0.7932 -9.069 2.5189 9.93923e-017 -1.98785e-016 -1.59028e-015 -0.8272 -3.3923 0.5977 9.93923e-017 -5.96354e-016 -1.59028e-015 -0.5649 -2.3158 0.4082 -9.93923e-017 -5.96354e-016 -1.59028e-015 0.9159 -9.2044 0.2193 9.93923e-017 -1.98785e-016 -1.59028e-015 0.0117 -4.1944 -0.0248 -0.0128176 0.00232552 8.52707e-005 0.0071 -2.3249 -0.0142 9.93923e-017 5.96354e-016 -0 0.6113 -8.7231 -2.0637 9.93923e-017 -1.98785e-016 -1.59028e-015 -0.1927 -3.8059 -0.2383 -0.0160551 0.00299681 0.000857156 -0.1091 -2.1688 -0.1362 -2.48481e-016 0 3.18055e-015 -0.6151 -8.0947 -3.5641 9.93923e-017 -1.98785e-016 -1.59028e-015 -0.4882 -2.341 -0.6462 -0.0125865 0.0031206 0.00282719 -0.3575 -1.7167 -0.4742 0 1.98785e-016 -0 -1.42 -1.8761 1.4223 9.93923e-017 -1.98785e-016 -1.59028e-015 -1.1471 -3.4929 2.6334 9.93923e-017 -5.96354e-016 -1.59028e-015 -0.823 -2.3 1.6571 -9.93923e-017 -5.96354e-016 -1.59028e-015 -2.2603 21.606 7.4023 -0.865644 0.16582 7.03859 -13.5187 -1.1334 -5.0155 -88.0329 10.2057 -10.5567 0.0994 -28.0499 -0.2431 0.0015593 -0.00248883 -0.000788628 -0.0679 -23.3996 -0.1402 7.87605e-005 4.10553e-005 1.24965e-005 -0.7932 -9.0691 2.5189 -3.97569e-016 -7.95139e-016 3.18055e-015 0.8272 -3.3923 0.5977 -1.98785e-016 -3.97569e-016 3.18055e-015 0.565 -2.3158 0.4082 -1.98785e-016 0 3.18055e-015 -0.916 -9.2044 0.2193 -3.97569e-016 -7.95139e-016 3.18055e-015 -0.0117 -4.1944 -0.0248 0.0129473 0.00231697 -8.70038e-005 -0.0071 -2.3249 -0.0142 9.93923e-017 -7.95139e-016 1.59028e-015 -0.6113 -8.7231 -2.0637 -3.97569e-016 -7.95139e-016 3.18055e-015 0.1927 -3.8059 -0.2383 0.0163314 0.00303369 -0.000872333 0.1091 -2.1688 -0.1362 3.97569e-016 7.95139e-016 -3.18055e-015 0.6151 -8.0947 -3.564 -3.97569e-016 -7.95139e-016 3.18055e-015 0.4882 -2.341 -0.6462 0.0145763 0.00367772 -0.00326275 0.3574 -1.7166 -0.4742 9.93923e-017 -3.97569e-016 -0 1.4199 -1.8761 1.4221 -3.97569e-016 -7.95139e-016 3.18055e-015 1.1472 -3.4929 2.6336 -1.98785e-016 -3.97569e-016 3.18055e-015 0.8229 -2.3 1.6571 -1.98785e-016 0 3.18055e-015 -9.412 3.9771 -0.7758 3.42485 1.36937 -0.0640303 -0.7531 -40.938 0 0.000136572 0.69354 0.00145564 1.77636e-015 -40.1986 -1.11022e-016 -3.42573 -2.06297 -0.0607933 8.88178e-016 -4.4182 9.239 -3.19502e-024 0 -1.48106e-024 9.4119 3.9773 -0.7758 -3.42498 1.36123 0.0639712 0.7532 -40.9383 2.22045e-016 -6.769e-005 0.712612 -0.0012277 8.88179e-016 -40.1986 0 3.42582 -2.07388 0.0612819 -8.88178e-016 -4.4182 9.239 2.55305e-023 0 -2.31416e-026 
-31.1255 28.7103 -25.3042 -133.331 66.6651 -4.31085e-006 -5.55112e-016 8.7983 -4.7612 -0.216538 4.48528 -0.130438 3.33067e-016 8.0291 0.4195 -0.424707 8.97101 -0.244893 2.55351e-015 9.9351 -2.2114 -0.424708 8.97102 -0.244899 -2.88658e-015 22.3885 -0.4656 -1.51321e-006 19.3237 1.02048e-005 -0.0001 12.643 3.4389 0.000810354 -0.0922348 0.119969 2.2603 21.606 7.4023 -13.0298 0.181582 -16.054 13.5163 -1.1332 -5.0146 51.9311 32.2161 19.6664 -0.0995 -28.05 -0.2431 -29.3197 -12.5944 -48.981 0.0679 -23.3996 -0.1402 25.5081 -3.79816 -16.1173 0.7932 -9.069 2.5189 1.32417e-031 1.59028e-015 -4.77083e-015 -0.8272 -3.3923 0.5977 6.36111e-015 1.59028e-015 -4.77083e-015 -0.5649 -2.3158 0.4082 -3.18055e-015 1.59028e-015 -3.18055e-015 0.9159 -9.2044 0.2193 1.32417e-031 1.59028e-015 -4.77083e-015 0.0117 -4.1944 -0.0248 -0.0128393 0.00232359 9.57344e-005 0.0071 -2.3249 -0.0142 -4.41391e-032 -1.59028e-015 -1.59028e-015 0.6113 -8.7231 -2.0637 1.32417e-031 1.59028e-015 -4.77083e-015 -0.1927 -3.8059 -0.2383 -0.0160841 0.00299575 0.000862086 -0.1091 -2.1688 -0.1362 -0 -3.18055e-015 -0 -0.6151 -8.0947 -3.5641 1.32417e-031 1.59028e-015 -4.77083e-015 -0.4882 -2.341 -0.6462 -0.0126097 0.00311813 0.00283193 -0.3575 -1.7167 -0.4742 3.18055e-015 3.18055e-015 1.59028e-015 -1.42 -1.8761 1.4223 1.32417e-031 1.59028e-015 -4.77083e-015 -1.1471 -3.4929 2.6334 6.36111e-015 1.59028e-015 -4.77083e-015 -0.823 -2.3 1.6571 -3.18055e-015 1.59028e-015 -3.18055e-015 -2.2603 21.606 7.4023 12.154 0.293393 10.5915 -13.5187 -1.1334 -5.0155 -53.5855 29.1951 -15.6699 0.0994 -28.0499 -0.2431 28.7892 -13.6799 49.2491 -0.0679 -23.3996 -0.1402 -25.8703 -3.94193 15.4935 -0.7932 -9.0691 2.5189 3.67201e-007 2.67726e-006 5.38683e-006 0.8272 -3.3923 0.5977 -3.18055e-015 -1.59028e-015 -0 0.565 -2.3158 0.4082 -4.69492e-006 1.40589e-006 -1.00743e-006 -0.916 -9.2044 0.2193 3.67201e-007 2.67726e-006 5.38683e-006 -0.0117 -4.1944 -0.0248 0.0129704 0.00232274 -9.246e-005 -0.0071 -2.3249 -0.0142 -2.49133e-006 3.01555e-006 -1.04378e-006 -0.6113 -8.7231 -2.0637 3.67201e-007 2.67726e-006 5.38683e-006 0.1927 -3.8059 -0.2383 0.0163601 0.00304496 -0.000883337 0.1091 -2.1688 -0.1362 -1.42794e-006 7.97452e-006 -3.21538e-006 0.6151 -8.0947 -3.564 3.67201e-007 2.67726e-006 5.38683e-006 0.4882 -2.341 -0.6462 0.0146067 0.00368622 -0.00327143 0.3574 -1.7166 -0.4742 7.75355e-007 5.96164e-006 -3.2515e-006 1.4199 -1.8761 1.4221 3.67201e-007 2.67726e-006 5.38683e-006 1.1472 -3.4929 2.6336 -3.18055e-015 -1.59028e-015 -0 0.8229 -2.3 1.6571 -4.69492e-006 1.40589e-006 -1.00743e-006 -9.412 3.9771 -0.7758 -6.74164 -9.78267 -3.65065 -0.7531 -40.938 7.10543e-015 -2.50837 46.3862 1.46139 -5.32907e-015 -40.1986 0 -3.22879 18.852 1.81479 0 -4.4182 9.239 7.95139e-016 -9.54166e-015 3.18055e-015 9.4119 3.9773 -0.7758 6.8521 -9.20011 3.65041 0.7532 -40.9383 3.55271e-015 2.55202 47.0564 -1.54499 0 -40.1986 0 3.08356 17.6052 -1.77753 -7.10543e-015 -4.4182 9.239 -3.18055e-015 -3.18055e-015 -1.59028e-015 
-37.998 3.72782 -36.399 -13.3293 83.3348 180 0 8.7983 -4.7612 -0.298193 6.46417 -0.204004 -7.10543e-015 8.0291 0.4195 -0.578616 12.9292 -0.377544 -7.10543e-015 9.9351 -2.2114 -0.578615 12.9293 -0.377548 7.10543e-015 22.3885 -0.4656 -3.92887e-006 27.6929 2.13625e-006 -0.0001 12.643 3.4389 -0.0021604 -0.183629 0.240486 2.2603 21.606 7.4023 -18.5383 0.558791 -17.5647 13.5163 -1.1332 -5.0146 33.8046 39.1023 24.1701 -0.0995 -28.05 -0.2431 -42.6473 -19.0858 -70.1825 0.0679 -23.3996 -0.1402 37.2156 -5.31171 -22.9695 0.7932 -9.06901 2.5189 9.10754e-008 1.98493e-005 1.4832e-005 -0.8272 -3.3923 0.5977 -9.10805e-008 -1.98493e-005 -1.4832e-005 -0.5649 -2.3158 0.4082 9.10754e-008 1.98493e-005 1.4832e-005 0.9159 -9.20441 0.2193 9.10754e-008 1.98493e-005 1.4832e-005 0.0117 -4.1944 -0.0248 -0.0128243 0.00230486 7.37872e-005 0.0071 -2.3249 -0.0142 7.95139e-016 1.59028e-015 -1.39149e-015 0.6113 -8.72311 -2.0637 9.10754e-008 1.98493e-005 1.4832e-005 -0.1927 -3.8059 -0.2383 -0.016046 0.00298851 0.000851106 -0.1091 -2.1688 -0.1362 3.18055e-015 -1.59028e-015 -6.95746e-016 -0.6151 -8.09471 -3.5641 9.10754e-008 1.98493e-005 1.4832e-005 -0.4882 -2.341 -0.6462 -0.0125908 0.0031013 0.00282452 -0.3575 -1.7167 -0.4742 -4.73958e-006 1.31035e-006 -1.21098e-006 -1.42 -1.8761 1.4223 9.10754e-008 1.98493e-005 1.4832e-005 -1.1471 -3.4929 2.6334 -9.10805e-008 -1.98493e-005 -1.4832e-005 -0.823 -2.3 1.6571 9.10754e-008 1.98493e-005 1.4832e-005 -2.2603 21.606 7.4023 17.6537 0.645342 12.1046 -13.5187 -1.1334 -5.0155 -36.9567 37.2178 -18.2536 0.0994 -28.0499 -0.2431 42.2665 -20.5959 70.5453 -0.0679 -23.3996 -0.1402 -37.7033 -5.48403 22.062 -0.7932 -9.0691 2.5189 3.49005e-006 -3.75401e-007 -5.85235e-006 0.8272 -3.3923 0.5977 9.41982e-007 -2.32016e-006 3.23594e-006 0.565 -2.3158 0.4082 -1.59028e-015 -3.18055e-015 4.17448e-015 -0.916 -9.2044 0.2193 3.49005e-006 -3.75401e-007 -5.85235e-006 -0.0117 -4.1944 -0.0248 0.0129522 0.00231116 -8.73963e-005 -0.0071 -2.3249 -0.0142 2.78706e-006 4.18416e-007 -3.06637e-006 -0.6113 -8.7231 -2.0637 3.49005e-006 -3.75401e-007 -5.85235e-006 0.1927 -3.8059 -0.2383 0.0163512 0.00304689 -0.000879123 0.1091 -2.1688 -0.1362 -1.64634e-006 4.14413e-007 -4.50158e-007 0.6151 -8.0947 -3.564 3.49005e-006 -3.75401e-007 -5.85235e-006 0.4882 -2.341 -0.6462 0.0146083 0.00369515 -0.0032748 0.3574 -1.7166 -0.4742 -8.4304e-006 -7.4798e-006 4.50181e-006 1.4199 -1.8761 1.4221 3.49005e-006 -3.75401e-007 -5.85235e-006 1.1472 -3.4929 2.6336 9.41982e-007 -2.32016e-006 3.23594e-006 0.8229 -2.3 1.6571 -1.59028e-015 -3.18055e-015 4.17448e-015 -9.412 3.9771 -0.7758 -11.0515 -14.1045 -5.61278 -0.7531 -40.938 0 -7.27953 66.9954 5.00945 0 -40.1986 0 -4.02953 27.3675 2.70424 0 -4.4182 9.239 -1.98785e-015 -3.97569e-016 3.18055e-015 9.4119 3.9773 -0.7758 11.0655 -14.8042 5.59516 0.7532 -40.9383 -3.55271e-015 7.48016 67.5744 -5.20302 -7.10543e-015 -40.1986 0 4.01661 27.4843 -2.69233 0 -4.4182 9.239 -1.64889e-006 7.83195e-007 1.66937e-007 
-35.8671 9.93916 -34.556 -179.715 90 -0.281763 0 8.7983 -4.7612 -0.282832 5.93711 -0.185369 -7.10543e-015 8.0291 0.4195 -0.550704 11.875 -0.34388 0 9.9351 -2.2114 -0.550705 11.875 -0.34388 7.10543e-015 22.3885 -0.4656 -4.35635e-007 25.1072 -5.91511e-007 -0.0001 12.643 3.4389 -0.00893718 -0.274168 0.361553 2.2603 21.606 7.4023 -16.55 1.13408 -17.0348 13.5163 -1.1332 -5.0146 37.4224 38.0532 23.4039 -0.0995 -28.05 -0.2431 -40.6778 -17.6292 -65.8585 0.0679 -23.3996 -0.1402 34.8854 -5.16331 -21.8896 0.7932 -9.069 2.5189 9.59481e-007 -9.16152e-006 -5.44414e-006 -0.8272 -3.3923 0.5977 -1.00045e-005 7.50275e-006 5.38032e-006 -0.5649 -2.3158 0.4082 7.95139e-016 0 -1.27222e-014 0.9159 -9.2044 0.2193 9.59481e-007 -9.16152e-006 -5.44414e-006 0.0117 -4.1944 -0.0248 -0.0128097 0.00232982 8.48632e-005 0.0071 -2.3249 -0.0142 -6.89007e-006 9.00956e-006 9.68629e-006 0.6113 -8.7231 -2.0637 9.59481e-007 -9.16152e-006 -5.44414e-006 -0.1927 -3.8059 -0.2383 -0.0160234 0.00300621 0.000860947 -0.1091 -2.1688 -0.1362 3.03456e-031 -3.18055e-015 5.46658e-015 -0.6151 -8.0947 -3.5641 9.59481e-007 -9.16152e-006 -5.44414e-006 -0.4882 -2.341 -0.6462 -0.0125816 0.0031248 0.0028326 -0.3575 -1.7167 -0.4742 1.59034e-006 8.66024e-007 1.56918e-006 -1.42 -1.8761 1.4223 9.59481e-007 -9.16152e-006 -5.44414e-006 -1.1471 -3.4929 2.6334 -1.00045e-005 7.50275e-006 5.38032e-006 -0.823 -2.3 1.6571 7.95139e-016 0 -1.27222e-014 -2.2603 21.606 7.4023 15.6552 1.22453 11.5795 -13.5187 -1.1334 -5.0155 -40.2932 35.8928 -17.8417 0.0994 -28.0499 -0.2431 40.1626 -19.0407 66.1855 -0.0679 -23.3996 -0.1402 -35.3109 -5.39708 20.9691 -0.7932 -9.06911 2.5189 -2.72127e-006 -8.1984e-007 2.48416e-006 0.827199 -3.3923 0.5977 -2.38542e-015 3.18055e-015 1.59028e-014 0.565 -2.3158 0.4082 -1.59028e-015 0 7.55382e-015 -0.915999 -9.2044 0.2193 -2.72127e-006 -8.1984e-007 2.48416e-006 -0.0117 -4.1944 -0.0248 0.0129545 0.00231529 -8.66762e-005 -0.0071 -2.3249 -0.0142 1.59028e-015 -3.18055e-015 -7.15625e-015 -0.6113 -8.7231 -2.0637 -2.72127e-006 -8.1984e-007 2.48416e-006 0.1927 -3.8059 -0.2383 0.0163287 0.00303554 -0.000876906 0.1091 -2.1688 -0.1362 1.59028e-015 3.18055e-015 -0 0.6151 -8.0947 -3.564 -2.72127e-006 -8.1984e-007 2.48416e-006 0.4882 -2.341 -0.6462 0.0146131 0.00367641 -0.00327413 0.3574 -1.7166 -0.4742 2.38542e-015 3.18055e-015 -4.37326e-015 1.4199 -1.8761 1.4221 -2.72127e-006 -8.1984e-007 2.48416e-006 1.1472 -3.4929 2.6336 -2.38542e-015 3.18055e-015 1.59028e-014 0.822899 -2.3 1.6571 -1.59028e-015 0 7.55382e-015 -9.412 3.9771 -0.7758 -9.98523 -13.6983 -5.23584 -0.7531 -40.938 -8.88179e-016 -6.21661 63.6639 4.12477 0 -40.1986 1.42109e-014 -3.819 24.763 2.47323 -7.10543e-015 -4.4182 9.239 -1.0312e-007 -1.95677e-008 2.74862e-008 9.4119 3.9773 -0.7758 9.98043 -13.6982 5.23112 0.7532 -40.9383 4.44089e-015 6.20978 63.6643 -4.1239 7.10543e-015 -40.1986 -1.42109e-014 3.81535 24.762 -2.47621 -7.10543e-015 -4.4182 9.239 1.0312e-007 -1.95454e-008 -2.74861e-008 
